# xmcd CD database file
#
# Track frame offsets:
#	150
#	13504
#	35510
#	41660
#	46483
#	60247
#	83480
#	103335
#	131212
#	137312
#	155416
#	164756
#	168697
#	200321
#	206312
#	214667
#
# Disc length: 3160 seconds
#
# Revision: 0
# Processed by: cddbd v1.5.2PL0 Copyright (c) Steve Scherf et al.
# Submitted via: CDex 1.70beta2
#
DISCID=d90c5610
DTITLE=David El-Malek - Music from source
DYEAR=2007
DGENRE=Jazz
TTITLE0=Les sept fils d'Hanna
TTITLE1=Antiochus IV
TTITLE2=Avinu Malkenu Part I
TTITLE3=Avinu Malkenu Part II
TTITLE4=Solomon's temple
TTITLE5=Hitragut
TTITLE6=Sion
TTITLE7=Le Livre des Rois
TTITLE8=Ma Nishtana Part I
TTITLE9=Haggadah
TTITLE10=Ma Nishtana Part II
TTITLE11=Nabuchodonosor II
TTITLE12=Sissu et Yeroushalaim
TTITLE13=Kirya y'Fefiya
TTITLE14=The 2nd Temple
TTITLE15=Dead sea
EXTD=YEAR: 2007
EXTT0=
EXTT1=
EXTT2=
EXTT3=
EXTT4=
EXTT5=
EXTT6=
EXTT7=
EXTT8=
EXTT9=
EXTT10=
EXTT11=
EXTT12=
EXTT13=
EXTT14=
EXTT15=
PLAYORDER=
